PathFileType	4	(X/Y/Z)	C:/Users/opensim2020/Desktop/walking_exp_matlab/subject02_walking14_straight_02.trc	
DataRate	CameraRate	NumFrames	NumMarkers	Units	OrigDataRate	OrigDataStartFrame	OrigNumFrames	
100.00	100.00	4	41	mm	100.00	855	121	
Frame#	Time	LFHD			RFHD			LBHD			RBHD			C7			T10			CLAV			STRN			RBAK			LSHO			LUPA			LELB			LFRM			LWRA			LWRB			LFIN			RSHO			RUPA			RELB			RFRM			RWRA			RWRB			RFIN			LASI			RASI			LPSI			RPSI			LTHI			LKNE			LTIB			LANK			LHEE			LTOE			RTHI			RKNE			RTIB			RANK			RHEE			RTOE			*39			*40			
		X1	Y1	Z1	X2	Y2	Z2	X3	Y3	Z3	X4	Y4	Z4	X5	Y5	Z5	X6	Y6	Z6	X7	Y7	Z7	X8	Y8	Z8	X9	Y9	Z9	X10	Y10	Z10	X11	Y11	Z11	X12	Y12	Z12	X13	Y13	Z13	X14	Y14	Z14	X15	Y15	Z15	X16	Y16	Z16	X17	Y17	Z17	X18	Y18	Z18	X19	Y19	Z19	X20	Y20	Z20	X21	Y21	Z21	X22	Y22	Z22	X23	Y23	Z23	X24	Y24	Z24	X25	Y25	Z25	X26	Y26	Z26	X27	Y27	Z27	X28	Y28	Z28	X29	Y29	Z29	X30	Y30	Z30	X31	Y31	Z31	X32	Y32	Z32	X33	Y33	Z33	X34	Y34	Z34	X35	Y35	Z35	X36	Y36	Z36	X37	Y37	Z37	X38	Y38	Z38	X39	Y39	Z39	X40	Y40	Z40	X41	Y41	Z41	

46	0.450	-991.89716	47.61767	1718.69336	-1134.49036	57.44599	1701.95679	-975.64581	181.27248	1650.00488	-1118.20374	202.94476	1632.72363	-1039.27649	246.35649	1510.53918	-1050.25989	301.46439	1234.79553	-1041.38708	105.64475	1441.83740	-1050.98047	54.39243	1270.33752	-1097.06384	314.48746	1335.26929	-869.17358	156.81012	1488.15723	-775.93292	116.39775	1301.28540	-754.58722	67.52282	1165.63318	-770.40881	-27.64395	1070.89063	-835.62732	-140.18256	1022.24127	-797.62225	-115.44528	989.07233	-807.35156	-173.71220	960.53552	-1230.74158	191.00609	1473.47839	-1314.63025	256.52982	1296.13574	-1343.89221	262.74832	1150.21033	-1358.37341	248.43811	1028.54565	-1328.20093	224.93517	895.90613	-1371.23474	261.91821	899.22479	-1361.08984	238.89082	828.92175	-912.86206	95.18710	968.28918	-1166.32104	74.14560	960.20599	-1009.91571	295.03973	1018.44055	-1122.84546	292.10953	1016.92017	-879.65027	219.44734	661.37714	-918.62695	292.36401	470.35138	-919.07690	391.44385	302.04697	-962.48297	440.30240	82.83649	-1010.31708	485.55255	61.55557	-969.60913	287.41245	34.44075	-1259.38184	91.91446	664.78094	-1227.35522	19.48541	470.21017	-1249.02124	-11.72104	288.36566	-1231.96667	-77.17901	102.36746	-1176.94690	-73.49757	36.82179	-1253.57422	-237.92976	107.65916	-1074.57410	151.82010	1789.65112	-3357.37329	2845.88428	1034.36023 
47	0.460	-993.41833	33.97184	1716.20740	-1136.02417	43.40493	1699.37891	-977.56628	167.23817	1647.60303	-1120.13074	188.96214	1630.37341	-1041.28125	232.48276	1507.97827	-1052.75146	287.50079	1232.13489	-1043.22070	91.82846	1439.30212	-1052.81775	41.42074	1267.79041	-1098.73340	300.50183	1332.49866	-871.01196	143.33565	1485.57117	-777.16699	101.59049	1299.66211	-755.25409	50.76230	1164.70471	-772.46710	-47.47199	1073.13733	-838.89063	-161.26093	1029.60657	-800.77466	-138.21039	995.28314	-811.62299	-197.18898	968.74237	-1232.72546	177.10799	1470.71570	-1315.92151	244.11163	1293.50586	-1343.97839	251.96545	1147.63489	-1359.14954	240.27281	1026.03503	-1329.21960	219.46637	892.60315	-1372.04150	256.69962	896.95343	-1362.08203	235.43895	825.99774	-914.27545	81.74623	965.86804	-1167.97559	58.92585	957.59216	-1013.11426	281.03412	1015.81500	-1125.99316	277.18988	1014.09943	-880.90314	209.21454	660.02417	-919.57281	283.85065	469.93494	-919.96332	386.31412	303.67239	-962.37213	439.26099	85.07153	-1010.18555	484.88635	64.59512	-969.32520	287.39401	34.35394	-1261.38599	79.24677	661.55615	-1228.36780	2.98792	468.38818	-1250.52380	-32.45536	287.65305	-1233.79639	-102.62807	103.17758	-1178.57898	-99.43094	37.13697	-1252.91895	-264.09109	111.40881	-1076.27393	137.79813	1787.09717	-3360.34204	2845.30005	1034.35620 
48	0.470	-994.81488	20.34370	1713.55444	-1137.78760	29.25229	1696.93835	-979.45398	153.59070	1645.02979	-1122.06689	174.88441	1628.04614	-1043.37756	218.88277	1505.59814	-1055.25366	273.48346	1229.55701	-1045.10144	77.92416	1436.94385	-1054.75867	27.26525	1265.40723	-1100.42969	286.52060	1329.90771	-872.97345	129.84964	1483.09204	-778.76465	86.55774	1297.75806	-756.05743	34.42159	1163.79041	-774.33795	-66.33249	1075.49951	-841.89307	-180.96593	1036.67090	-803.85681	-159.98299	1000.97668	-815.37500	-219.94331	977.24811	-1234.84839	163.19908	1468.00940	-1316.29968	231.49013	1290.61414	-1343.95154	240.79971	1145.08752	-1359.65967	231.73296	1023.38257	-1330.27039	213.73834	889.23407	-1372.95032	250.89694	894.87616	-1363.35217	231.42621	823.37494	-915.92627	67.79719	963.16132	-1169.50928	43.62336	955.16913	-1016.28766	266.85980	1013.36005	-1129.28320	262.07593	1011.58344	-882.11420	198.59009	658.96356	-920.44623	274.60971	469.52255	-920.49725	380.48737	305.53610	-962.11401	437.98642	87.65852	-1009.90759	484.16183	68.36537	-969.13263	287.25540	34.21913	-1263.20459	65.16298	658.89624	-1229.81628	-14.94043	467.43460	-1252.08276	-52.12155	286.83295	-1234.33264	-123.64742	102.65667	-1179.56836	-120.87010	36.71641	-1251.56750	-285.61136	112.26689	-1078.02380	123.68018	1784.81506	-3360.37842	2845.20239	1034.34119 
49	0.480	-996.85931	6.04227	1710.81091	-1139.45544	15.03315	1694.60742	-981.71863	139.53510	1642.90637	-1124.08032	160.78246	1625.91467	-1045.53271	205.10782	1503.24731	-1057.67883	259.27328	1227.03052	-1047.12830	64.24218	1434.69348	-1056.71460	13.16701	1263.59094	-1103.16431	272.56812	1327.44299	-875.06982	116.52415	1480.76965	-780.33826	72.46516	1296.30896	-756.94971	18.60141	1162.94092	-776.39807	-84.71969	1077.88562	-844.82947	-199.75894	1043.25818	-806.85974	-180.05803	1006.64783	-819.20996	-241.19626	985.08575	-1237.03662	149.50002	1465.77222	-1317.61536	218.64876	1288.28613	-1344.16479	229.30386	1142.86194	-1360.38660	222.81154	1021.17932	-1331.86926	207.23592	886.58514	-1374.29993	244.67638	893.22827	-1364.91125	226.82353	821.19916	-917.46906	53.52103	960.56909	-1171.04907	28.15022	952.99359	-1019.39313	252.23094	1011.07037	-1132.70630	246.79874	1009.33832	-883.31683	187.42111	658.05707	-921.13916	264.41824	469.14276	-921.18536	373.88705	307.55249	-961.60931	436.45267	90.78798	-1009.01715	482.58862	72.62643	-968.91742	287.12515	34.17642	-1264.94421	48.62911	657.27258	-1231.13110	-34.02703	466.84021	-1253.36438	-70.78388	285.78357	-1234.83057	-140.79047	101.37025	-1180.22815	-136.45062	35.64646	-1249.74268	-302.75327	110.00008	-1079.77881	109.39173	1782.50452	-3357.51221	2845.90771	1034.37476 
